<svg xmlns="http://www.w3.org/2000/svg" xmlns:xlink="http://www.w3.org/1999/xlink" contentStyleType="text/css" data-diagram-type="DESCRIPTION" height="1936px" preserveAspectRatio="none" style="width:451px;height:1936px;background:#FFFFFF;" version="1.1" viewBox="0 0 451 1936" width="451px" zoomAndPan="magnify"><?plantuml 1.2026.3?><defs/><g><g class="title" data-source-line="1"><text fill="#000000" font-family="sans-serif" font-size="14" font-weight="700" lengthAdjust="spacing" textLength="262.1582" x="90.9209" y="24.5332">Main Use Cases by Owning Subdomain</text></g><!--cluster Christopher Columbus Travel--><g class="cluster" data-qualified-name="Christopher Columbus Travel" data-source-line="14" id="ent0007"><rect fill="none" height="1877" rx="2.5" ry="2.5" style="stroke:#181818;stroke-width:1;" width="300" x="137" y="45.6094"/><text fill="#000000" font-family="sans-serif" font-size="14" font-weight="700" lengthAdjust="spacing" textLength="196.8066" x="188.5967" y="62.1426">Christopher Columbus Travel</text></g><!--cluster Customer Interaction--><g class="cluster" data-qualified-name="Christopher Columbus Travel.Customer Interaction" data-source-line="15" id="ent0008"><rect fill="none" height="122" rx="2.5" ry="2.5" style="stroke:#181818;stroke-width:1;" width="192" x="191" y="89.6094"/><text fill="#000000" font-family="sans-serif" font-size="14" font-style="italic" lengthAdjust="spacing" textLength="84.0615" x="244.9692" y="106.1426">&#171;subdomain&#187;</text><text fill="#000000" font-family="sans-serif" font-size="14" font-weight="700" lengthAdjust="spacing" textLength="140.7998" x="216.6001" y="123.752">Customer Interaction</text></g><!--cluster Season Planning--><g class="cluster" data-qualified-name="Christopher Columbus Travel.Season Planning" data-source-line="18" id="ent0010"><rect fill="none" height="134" rx="2.5" ry="2.5" style="stroke:#181818;stroke-width:1;" width="207" x="183.5" y="1618.6094"/><text fill="#000000" font-family="sans-serif" font-size="14" font-style="italic" lengthAdjust="spacing" textLength="84.0615" x="244.9692" y="1635.1426">&#171;subdomain&#187;</text><text fill="#000000" font-family="sans-serif" font-size="14" font-weight="700" lengthAdjust="spacing" textLength="112.7998" x="230.6001" y="1652.752">Season Planning</text></g><!--cluster Procurement--><g class="cluster" data-qualified-name="Christopher Columbus Travel.Procurement" data-source-line="21" id="ent0012"><rect fill="none" height="122" rx="2.5" ry="2.5" style="stroke:#181818;stroke-width:1;" width="222" x="176" y="1776.6094"/><text fill="#000000" font-family="sans-serif" font-size="14" font-style="italic" lengthAdjust="spacing" textLength="84.0615" x="244.9692" y="1793.1426">&#171;subdomain&#187;</text><text fill="#000000" font-family="sans-serif" font-size="14" font-weight="700" lengthAdjust="spacing" textLength="86.3584" x="243.8208" y="1810.752">Procurement</text></g><!--cluster Touristic Product Design--><g class="cluster" data-qualified-name="Christopher Columbus Travel.Touristic Product Design" data-source-line="24" id="ent0014"><rect fill="none" height="294" rx="2.5" ry="2.5" style="stroke:#181818;stroke-width:1;" width="247" x="163.5" y="1300.6094"/><text fill="#000000" font-family="sans-serif" font-size="14" font-style="italic" lengthAdjust="spacing" textLength="84.0615" x="244.9692" y="1317.1426">&#171;subdomain&#187;</text><text fill="#000000" font-family="sans-serif" font-size="14" font-weight="700" lengthAdjust="spacing" textLength="166.4619" x="203.769" y="1334.752">Touristic Product Design</text></g><!--cluster Sales--><g class="cluster" data-qualified-name="Christopher Columbus Travel.Sales" data-source-line="29" id="ent0018"><rect fill="none" height="553" rx="2.5" ry="2.5" style="stroke:#181818;stroke-width:1;" width="243" x="165.5" y="235.6094"/><text fill="#000000" font-family="sans-serif" font-size="14" font-style="italic" lengthAdjust="spacing" textLength="84.0615" x="244.9692" y="252.1426">&#171;subdomain&#187;</text><text fill="#000000" font-family="sans-serif" font-size="14" font-weight="700" lengthAdjust="spacing" textLength="36.5859" x="268.707" y="269.752">Sales</text></g><!--cluster Customer Care--><g class="cluster" data-qualified-name="Christopher Columbus Travel.Customer Care" data-source-line="37" id="ent0025"><rect fill="none" height="464" rx="2.5" ry="2.5" style="stroke:#181818;stroke-width:1;" width="252" x="161" y="812.6094"/><text fill="#000000" font-family="sans-serif" font-size="14" font-style="italic" lengthAdjust="spacing" textLength="84.0615" x="244.9692" y="829.1426">&#171;subdomain&#187;</text><text fill="#000000" font-family="sans-serif" font-size="14" font-weight="700" lengthAdjust="spacing" textLength="100.3652" x="236.8174" y="846.752">Customer Care</text></g><!--entity UC001--><g class="entity" data-qualified-name="Christopher Columbus Travel.Customer Interaction.UC001" data-source-line="16" id="ent0009"><ellipse cx="286.8505" cy="169.5508" fill="#F1F1F1" rx="79.8505" ry="25.4414" style="stroke:#181818;stroke-width:0.5;"/><text fill="#000000" font-family="sans-serif" font-size="14" lengthAdjust="spacing" textLength="48.2412" x="262.7298" y="162.3528">UC-001</text><text fill="#000000" font-family="sans-serif" font-size="14" lengthAdjust="spacing" textLength="120.6064" x="226.5472" y="179.9621">Seek Travel Advice</text></g><!--entity UC015--><g class="entity" data-qualified-name="Christopher Columbus Travel.Season Planning.UC015" data-source-line="19" id="ent0011"><ellipse cx="286.8514" cy="1704.3881" fill="#F1F1F1" rx="87.3514" ry="31.7788" style="stroke:#181818;stroke-width:0.5;"/><text fill="#000000" font-family="sans-serif" font-size="14" lengthAdjust="spacing" textLength="48.2412" x="262.7308" y="1690.9205">UC-015</text><text fill="#000000" font-family="sans-serif" font-size="14" lengthAdjust="spacing" textLength="154.8408" x="209.431" y="1708.5298">Maintain Travel Products</text><text fill="#000000" font-family="sans-serif" font-size="14" lengthAdjust="spacing" textLength="80.9307" x="246.3861" y="1726.1392">and Services</text></g><!--entity UC006--><g class="entity" data-qualified-name="Christopher Columbus Travel.Procurement.UC006" data-source-line="22" id="ent0013"><ellipse cx="287.1486" cy="1856.4148" fill="#F1F1F1" rx="95.1486" ry="25.3055" style="stroke:#181818;stroke-width:0.5;"/><text fill="#000000" font-family="sans-serif" font-size="14" lengthAdjust="spacing" textLength="48.2412" x="263.028" y="1848.9965">UC-006</text><text fill="#000000" font-family="sans-serif" font-size="14" lengthAdjust="spacing" textLength="145.4961" x="214.4005" y="1866.6058">Procure Stock Services</text></g><!--entity UC003--><g class="entity" data-qualified-name="Christopher Columbus Travel.Touristic Product Design.UC003" data-source-line="25" id="ent0015"><ellipse cx="287.1526" cy="1466.8469" fill="#F1F1F1" rx="107.6526" ry="25.2375" style="stroke:#181818;stroke-width:0.5;"/><text fill="#000000" font-family="sans-serif" font-size="14" lengthAdjust="spacing" textLength="48.2412" x="263.032" y="1459.3175">UC-003</text><text fill="#000000" font-family="sans-serif" font-size="14" lengthAdjust="spacing" textLength="165.7441" x="204.2805" y="1476.9268">Compose Individual Travel</text></g><!--entity UC004--><g class="entity" data-qualified-name="Christopher Columbus Travel.Touristic Product Design.UC004" data-source-line="26" id="ent0016"><ellipse cx="287.1808" cy="1552.418" fill="#F1F1F1" rx="94.6808" ry="25.3086" style="stroke:#181818;stroke-width:0.5;"/><text fill="#000000" font-family="sans-serif" font-size="14" lengthAdjust="spacing" textLength="48.2412" x="263.0602" y="1545.0047">UC-004</text><text fill="#000000" font-family="sans-serif" font-size="14" lengthAdjust="spacing" textLength="144.7373" x="214.8122" y="1562.614">Design Package Travel</text></g><!--entity UC005--><g class="entity" data-qualified-name="Christopher Columbus Travel.Touristic Product Design.UC005" data-source-line="27" id="ent0017"><ellipse cx="286.8853" cy="1380.3749" fill="#F1F1F1" rx="101.8853" ry="25.2655" style="stroke:#181818;stroke-width:0.5;"/><text fill="#000000" font-family="sans-serif" font-size="14" lengthAdjust="spacing" textLength="48.2412" x="262.7647" y="1372.8913">UC-005</text><text fill="#000000" font-family="sans-serif" font-size="14" lengthAdjust="spacing" textLength="156.4131" x="208.6787" y="1390.5007">Obtain Plausible Itinerary</text></g><!--entity UC008--><g class="entity" data-qualified-name="Christopher Columbus Travel.Sales.UC008" data-source-line="30" id="ent0019"><ellipse cx="287.2341" cy="660.5239" fill="#F1F1F1" rx="82.2341" ry="25.4146" style="stroke:#181818;stroke-width:0.5;"/><text fill="#000000" font-family="sans-serif" font-size="14" lengthAdjust="spacing" textLength="48.2412" x="263.1135" y="653.2826">UC-008</text><text fill="#000000" font-family="sans-serif" font-size="14" lengthAdjust="spacing" textLength="124.4961" x="224.986" y="670.892">Receive Sales Offer</text></g><!--entity UC009--><g class="entity" data-qualified-name="Christopher Columbus Travel.Sales.UC009" data-source-line="31" id="ent0020"><ellipse cx="286.8879" cy="746.5624" fill="#F1F1F1" rx="78.8879" ry="25.453" style="stroke:#181818;stroke-width:0.5;"/><text fill="#000000" font-family="sans-serif" font-size="14" lengthAdjust="spacing" textLength="48.2412" x="262.7673" y="739.3831">UC-009</text><text fill="#000000" font-family="sans-serif" font-size="14" lengthAdjust="spacing" textLength="119.0342" x="227.3708" y="756.9925">Confirm Availability</text></g><!--entity UC010--><g class="entity" data-qualified-name="Christopher Columbus Travel.Sales.UC010" data-source-line="32" id="ent0021"><ellipse cx="286.9701" cy="315.5804" fill="#F1F1F1" rx="77.4701" ry="25.471" style="stroke:#181818;stroke-width:0.5;"/><text fill="#000000" font-family="sans-serif" font-size="14" lengthAdjust="spacing" textLength="48.2412" x="262.8495" y="308.4301">UC-010</text><text fill="#000000" font-family="sans-serif" font-size="14" lengthAdjust="spacing" textLength="116.7168" x="228.6117" y="326.0395">Accept Sales Offer</text></g><!--entity UC016--><g class="entity" data-qualified-name="Christopher Columbus Travel.Sales.UC016" data-source-line="33" id="ent0022"><ellipse cx="286.9384" cy="401.5743" fill="#F1F1F1" rx="77.9384" ry="25.4649" style="stroke:#181818;stroke-width:0.5;"/><text fill="#000000" font-family="sans-serif" font-size="14" lengthAdjust="spacing" textLength="48.2412" x="262.8178" y="394.4143">UC-016</text><text fill="#000000" font-family="sans-serif" font-size="14" lengthAdjust="spacing" textLength="117.4824" x="228.1972" y="412.0236">Place Travel Order</text></g><!--entity UC017--><g class="entity" data-qualified-name="Christopher Columbus Travel.Sales.UC017" data-source-line="34" id="ent0023"><ellipse cx="287.2293" cy="487.8557" fill="#F1F1F1" rx="105.7293" ry="25.2463" style="stroke:#181818;stroke-width:0.5;"/><text fill="#000000" font-family="sans-serif" font-size="14" lengthAdjust="spacing" textLength="48.2412" x="263.1087" y="480.3407">UC-017</text><text fill="#000000" font-family="sans-serif" font-size="14" lengthAdjust="spacing" textLength="162.6338" x="205.9124" y="497.95">Secure Required Services</text></g><!--entity UC018--><g class="entity" data-qualified-name="Christopher Columbus Travel.Sales.UC018" data-source-line="35" id="ent0024"><ellipse cx="287.0272" cy="573.4562" fill="#F1F1F1" rx="59.5272" ry="25.8468" style="stroke:#181818;stroke-width:0.5;"/><text fill="#000000" font-family="sans-serif" font-size="14" lengthAdjust="spacing" textLength="48.2412" x="262.9066" y="566.9031">UC-018</text><text fill="#000000" font-family="sans-serif" font-size="14" lengthAdjust="spacing" textLength="87.1377" x="243.4584" y="584.5125">Pay for Travel</text></g><!--entity UC002--><g class="entity" data-qualified-name="Christopher Columbus Travel.Customer Care.UC002" data-source-line="38" id="ent0026"><ellipse cx="287.0715" cy="1148.8365" fill="#F1F1F1" rx="110.0715" ry="25.2271" style="stroke:#181818;stroke-width:0.5;"/><text fill="#000000" font-family="sans-serif" font-size="14" lengthAdjust="spacing" textLength="48.2412" x="262.9509" y="1141.2901">UC-002</text><text fill="#000000" font-family="sans-serif" font-size="14" lengthAdjust="spacing" textLength="169.6543" x="202.2444" y="1158.8995">Obtain Ongoing Assistance</text></g><!--entity UC011--><g class="entity" data-qualified-name="Christopher Columbus Travel.Customer Care.UC011" data-source-line="39" id="ent0027"><ellipse cx="287.0944" cy="1234.4055" fill="#F1F1F1" rx="96.5944" ry="25.2961" style="stroke:#181818;stroke-width:0.5;"/><text fill="#000000" font-family="sans-serif" font-size="14" lengthAdjust="spacing" textLength="48.2412" x="262.9737" y="1226.9719">UC-011</text><text fill="#000000" font-family="sans-serif" font-size="14" lengthAdjust="spacing" textLength="147.8408" x="213.1739" y="1244.5813">Prepare Ordered Travel</text></g><!--entity UC012--><g class="entity" data-qualified-name="Christopher Columbus Travel.Customer Care.UC012" data-source-line="40" id="ent0028"><ellipse cx="287.086" cy="976.8406" fill="#F1F1F1" rx="109.086" ry="25.2313" style="stroke:#181818;stroke-width:0.5;"/><text fill="#000000" font-family="sans-serif" font-size="14" lengthAdjust="spacing" textLength="48.2412" x="262.9654" y="969.301">UC-012</text><text fill="#000000" font-family="sans-serif" font-size="14" lengthAdjust="spacing" textLength="168.0615" x="203.0553" y="986.9104">Receive Travel Documents</text></g><!--entity UC013--><g class="entity" data-qualified-name="Christopher Columbus Travel.Customer Care.UC013" data-source-line="41" id="ent0029"><ellipse cx="286.9562" cy="1062.3854" fill="#F1F1F1" rx="99.9562" ry="25.2761" style="stroke:#181818;stroke-width:0.5;"/><text fill="#000000" font-family="sans-serif" font-size="14" lengthAdjust="spacing" textLength="48.2412" x="262.8356" y="1054.9191">UC-013</text><text fill="#000000" font-family="sans-serif" font-size="14" lengthAdjust="spacing" textLength="153.2891" x="210.3117" y="1072.5285">Coordinate Active Travel</text></g><!--entity UC014--><g class="entity" data-qualified-name="Christopher Columbus Travel.Customer Care.UC014" data-source-line="42" id="ent0030"><ellipse cx="287.1261" cy="891.8448" fill="#F1F1F1" rx="108.1261" ry="25.2354" style="stroke:#181818;stroke-width:0.5;"/><text fill="#000000" font-family="sans-serif" font-size="14" lengthAdjust="spacing" textLength="48.2412" x="263.0055" y="884.312">UC-014</text><text fill="#000000" font-family="sans-serif" font-size="14" lengthAdjust="spacing" textLength="166.5098" x="203.8712" y="901.9213">Maintain Customer Record</text></g><!--entity Customer--><g class="entity" data-qualified-name="Customer" data-source-line="8" id="ent0002"><ellipse cx="61.3413" cy="637.6094" fill="#F1F1F1" rx="16" ry="16" style="stroke:#181818;stroke-width:0.5;"/><path d="M61.3413,657.6094 C65.3413,657.6094 68.3413,657.6094 72.3413,653.6094 C80.3413,653.6094 88.3413,661.6094 88.3413,669.6094 L88.3413,673.6094 C88.3413,677.6094 84.3413,681.6094 80.3413,681.6094 L42.3413,681.6094 C38.3413,681.6094 34.3413,677.6094 34.3413,673.6094 L34.3413,669.6094 C34.3413,661.6094 42.3413,653.6094 50.3413,653.6094 C54.3413,657.6094 57.3413,657.6094 61.3413,657.6094" fill="#F1F1F1" style="stroke:#181818;stroke-width:0.5;"/><text fill="#000000" font-family="sans-serif" font-size="14" lengthAdjust="spacing" textLength="60.6826" x="31" y="696.6426">Customer</text></g><!--entity Traveler--><g class="entity" data-qualified-name="Traveler" data-source-line="9" id="ent0003"><ellipse cx="61.5" cy="1068.6094" fill="#F1F1F1" rx="16" ry="16" style="stroke:#181818;stroke-width:0.5;"/><path d="M61.5,1088.6094 C65.5,1088.6094 68.5,1088.6094 72.5,1084.6094 C80.5,1084.6094 88.5,1092.6094 88.5,1100.6094 L88.5,1104.6094 C88.5,1108.6094 84.5,1112.6094 80.5,1112.6094 L42.5,1112.6094 C38.5,1112.6094 34.5,1108.6094 34.5,1104.6094 L34.5,1100.6094 C34.5,1092.6094 42.5,1084.6094 50.5,1084.6094 C54.5,1088.6094 57.5,1088.6094 61.5,1088.6094" fill="#F1F1F1" style="stroke:#181818;stroke-width:0.5;"/><text fill="#000000" font-family="sans-serif" font-size="14" lengthAdjust="spacing" textLength="51.3447" x="35.8276" y="1127.6426">Traveler</text></g><!--entity Advisor--><g class="entity" data-qualified-name="Advisor" data-source-line="10" id="ent0004"><ellipse cx="61.7344" cy="1211.6094" fill="#F1F1F1" rx="16" ry="16" style="stroke:#181818;stroke-width:0.5;"/><path d="M61.7344,1231.6094 C65.7344,1231.6094 68.7344,1231.6094 72.7344,1227.6094 C80.7344,1227.6094 88.7344,1235.6094 88.7344,1243.6094 L88.7344,1247.6094 C88.7344,1251.6094 84.7344,1255.6094 80.7344,1255.6094 L42.7344,1255.6094 C38.7344,1255.6094 34.7344,1251.6094 34.7344,1247.6094 L34.7344,1243.6094 C34.7344,1235.6094 42.7344,1227.6094 50.7344,1227.6094 C54.7344,1231.6094 57.7344,1231.6094 61.7344,1231.6094" fill="#F1F1F1" style="stroke:#181818;stroke-width:0.5;"/><text fill="#000000" font-family="sans-serif" font-size="14" lengthAdjust="spacing" textLength="89.4688" x="17" y="1270.6426">Travel Advisor</text></g><!--entity Planner--><g class="entity" data-qualified-name="Planner" data-source-line="11" id="ent0005"><ellipse cx="61.2617" cy="1605.6094" fill="#F1F1F1" rx="16" ry="16" style="stroke:#181818;stroke-width:0.5;"/><path d="M61.2617,1625.6094 C65.2617,1625.6094 68.2617,1625.6094 72.2617,1621.6094 C80.2617,1621.6094 88.2617,1629.6094 88.2617,1637.6094 L88.2617,1641.6094 C88.2617,1645.6094 84.2617,1649.6094 80.2617,1649.6094 L42.2617,1649.6094 C38.2617,1649.6094 34.2617,1645.6094 34.2617,1641.6094 L34.2617,1637.6094 C34.2617,1629.6094 42.2617,1621.6094 50.2617,1621.6094 C54.2617,1625.6094 57.2617,1625.6094 61.2617,1625.6094" fill="#F1F1F1" style="stroke:#181818;stroke-width:0.5;"/><text fill="#000000" font-family="sans-serif" font-size="14" lengthAdjust="spacing" textLength="110.5234" x="6" y="1664.6426">Seasonal Planner</text></g><!--entity Purchaser--><g class="entity" data-qualified-name="Purchaser" data-source-line="12" id="ent0006"><ellipse cx="61.4033" cy="1833.6094" fill="#F1F1F1" rx="16" ry="16" style="stroke:#181818;stroke-width:0.5;"/><path d="M61.4033,1853.6094 C65.4033,1853.6094 68.4033,1853.6094 72.4033,1849.6094 C80.4033,1849.6094 88.4033,1857.6094 88.4033,1865.6094 L88.4033,1869.6094 C88.4033,1873.6094 84.4033,1877.6094 80.4033,1877.6094 L42.4033,1877.6094 C38.4033,1877.6094 34.4033,1873.6094 34.4033,1869.6094 L34.4033,1865.6094 C34.4033,1857.6094 42.4033,1849.6094 50.4033,1849.6094 C54.4033,1853.6094 57.4033,1853.6094 61.4033,1853.6094" fill="#F1F1F1" style="stroke:#181818;stroke-width:0.5;"/><text fill="#000000" font-family="sans-serif" font-size="14" lengthAdjust="spacing" textLength="63.8066" x="29.5" y="1892.6426">Purchaser</text></g><!--link Customer to UC001--><g class="link" data-entity-1="ent0002" data-entity-2="ent0009" data-link-type="association" data-source-line="46" id="lnk31"><path d="M65.33,621.0294 C72.17,534.2894 91.8,330.6394 129,273.6094 C154.63,234.3094 200.86,206.3894 236.54,189.4394" fill="none" id="Customer-UC001" style="stroke:#181818;stroke-width:1;"/></g><!--link Traveler to UC002--><g class="link" data-entity-1="ent0003" data-entity-2="ent0026" data-link-type="association" data-source-line="47" id="lnk32"><path d="M89.02,1098.3694 C119.43,1106.1294 170.57,1119.1694 213.12,1130.0194" fill="none" id="Traveler-UC002" style="stroke:#181818;stroke-width:1;"/></g><!--link Customer to UC003--><g class="link" data-entity-1="ent0002" data-entity-2="ent0015" data-link-type="association" data-source-line="48" id="lnk33"><path d="M69.8,700.2894 C81.99,768.3894 106.22,912.0494 117,1034.6094 C118.9,1056.1494 115.62,1406.6194 129,1423.6094 C142.9,1441.2594 163.31,1452.0894 184.84,1458.6394" fill="none" id="Customer-UC003" style="stroke:#181818;stroke-width:1;"/></g><!--link Planner to UC004--><g class="link" data-entity-1="ent0005" data-entity-2="ent0016" data-link-type="association" data-source-line="49" id="lnk34"><path d="M117.17,1610.0194 C150.65,1598.6394 193.45,1584.0794 227.59,1572.4694" fill="none" id="Planner-UC004" style="stroke:#181818;stroke-width:1;"/></g><!--link Customer to UC005--><g class="link" data-entity-1="ent0002" data-entity-2="ent0017" data-link-type="association" data-source-line="50" id="lnk35"><path d="M69.56,700.3094 C81.38,768.4494 105.07,912.1594 117,1034.6094 C119.61,1061.4094 115.68,1253.2194 129,1276.6094 C151.16,1315.5294 194.57,1342.5794 230.13,1359.3194" fill="none" id="Customer-UC005" style="stroke:#181818;stroke-width:1;"/></g><!--link Purchaser to UC006--><g class="link" data-entity-1="ent0006" data-entity-2="ent0013" data-link-type="association" data-source-line="51" id="lnk36"><path d="M93.58,1856.6094 C119.12,1856.6094 156.72,1856.6094 191.91,1856.6094" fill="none" id="Purchaser-UC006" style="stroke:#181818;stroke-width:1;"/></g><!--link Customer to UC008--><g class="link" data-entity-1="ent0002" data-entity-2="ent0019" data-link-type="association" data-source-line="52" id="lnk37"><path d="M92.18,660.6094 C120.8,660.6094 165.42,660.6094 204.63,660.6094" fill="none" id="Customer-UC008" style="stroke:#181818;stroke-width:1;"/></g><!--link Customer to UC009--><g class="link" data-entity-1="ent0002" data-entity-2="ent0020" data-link-type="association" data-source-line="53" id="lnk38"><path d="M92.17,682.5794 C103.3,690.0494 116.32,697.9394 129,703.6094 C157.63,716.4194 190.95,726.2094 219.51,733.1794" fill="none" id="Customer-UC009" style="stroke:#181818;stroke-width:1;"/></g><!--link Customer to UC010--><g class="link" data-entity-1="ent0002" data-entity-2="ent0021" data-link-type="association" data-source-line="54" id="lnk39"><path d="M66.17,620.9994 C73.74,547.9494 93.4,396.0594 129,358.6094 C150.03,336.4894 181.26,325.3794 210.34,319.9294" fill="none" id="Customer-UC010" style="stroke:#181818;stroke-width:1;"/></g><!--link Advisor to UC011--><g class="link" data-entity-1="ent0004" data-entity-2="ent0027" data-link-type="association" data-source-line="55" id="lnk40"><path d="M106.12,1234.6094 C130.13,1234.6094 160.93,1234.6094 190.23,1234.6094" fill="none" id="Advisor-UC011" style="stroke:#181818;stroke-width:1;"/></g><!--link Customer to UC012--><g class="link" data-entity-1="ent0002" data-entity-2="ent0028" data-link-type="association" data-source-line="56" id="lnk41"><path d="M67.18,700.1294 C75.94,767.5094 96.87,900.5494 129,933.6094 C144.66,949.7194 165.73,959.9694 187.35,966.4494" fill="none" id="Customer-UC012" style="stroke:#181818;stroke-width:1;"/></g><!--link Traveler to UC013--><g class="link" data-entity-1="ent0003" data-entity-2="ent0029" data-link-type="association" data-source-line="57" id="lnk42"><path d="M89.02,1088.1694 C115.78,1084.6994 158.62,1079.1394 197.52,1074.0894" fill="none" id="Traveler-UC013" style="stroke:#181818;stroke-width:1;"/></g><!--link Customer to UC014--><g class="link" data-entity-1="ent0002" data-entity-2="ent0030" data-link-type="association" data-source-line="58" id="lnk43"><path d="M76.85,700.1894 C88.07,727.2594 105.67,762.7794 129,788.6094 C160.14,823.0794 205.26,851.0894 239.15,869.1494" fill="none" id="Customer-UC014" style="stroke:#181818;stroke-width:1;"/></g><!--link Planner to UC015--><g class="link" data-entity-1="ent0005" data-entity-2="ent0011" data-link-type="association" data-source-line="59" id="lnk44"><path d="M117.17,1647.1994 C148.97,1658.0094 189.18,1671.6894 222.39,1682.9794" fill="none" id="Planner-UC015" style="stroke:#181818;stroke-width:1;"/></g><!--link Customer to UC016--><g class="link" data-entity-1="ent0002" data-entity-2="ent0022" data-link-type="association" data-source-line="60" id="lnk45"><path d="M63.66,620.8494 C67.26,572.4694 80.68,491.4394 129,444.6094 C150.71,423.5694 181.7,412.5994 210.42,406.9694" fill="none" id="Customer-UC016" style="stroke:#181818;stroke-width:1;"/></g><!--link Customer to UC017--><g class="link" data-entity-1="ent0002" data-entity-2="ent0023" data-link-type="association" data-source-line="61" id="lnk46"><path d="M73.06,620.9094 C82.87,591.5694 100.37,552.8194 129,529.6094 C147.19,514.8594 170.09,505.2594 192.73,499.0194" fill="none" id="Customer-UC017" style="stroke:#181818;stroke-width:1;"/></g><!--link Customer to UC018--><g class="link" data-entity-1="ent0002" data-entity-2="ent0024" data-link-type="association" data-source-line="62" id="lnk47"><path d="M92.19,638.6894 C103.32,631.2194 116.34,623.3194 129,617.6094 C162.16,602.6594 201.59,591.6294 232.64,584.3494" fill="none" id="Customer-UC018" style="stroke:#181818;stroke-width:1;"/></g><?plantuml-src ZLJ1Rk8m4BtdAqRSAn5AAPMgIYYzzB02DUqjby4Pm2AnMTkXGgl--uw3aqP9f7ABn_FothmPZvEk8FY3Ki6d9KZGaeNj1TPVIgezfDKsroNVHb51EmTEWv7xWuDS6X9EQXNPerGdD5Y2FM2klpniXuMbpiq9nH7tbBeBataWgdtHJK3XjBbUunTPNL8KrJ58AkluQCBnm-2PYlOukPvXbP-brMO2Q9ll9YCbj5fX0Pi2bQ9hJlWEEPlAY0DNRgAe5GUJv60aSvyEn2fqKPNRoWR-2VoBeAcACuD6U5EE3DQ-JE3vsJRklRpK083Aac0Yc7mcTzDfdAcKw0YT8WJL-ZuJlcN4TvVcMibLExjy0qFya2dVM-Vx6rWsHkULS3PJg798oNXIsx363trMpXULePAKkwMcHQO20bAdnN70C5tq6JvqvPsMej46hsJb_YOBxpELwFAaEV2cSdcMUSMjRheK6Ez7WFDCNLbW4tJqGFCH4DkvtjPcSXCgAxSy9szEyYIXkRJ8WOKf5hx-twjPPkgT1Capc-SniDxjmiJw7oz784_U0BMJfeJL6MM1Mrb8zoFcQMGgffbQ2K4dDyOIJqSGlgi5YiOaM9kyWrYC81xzRDTZy4v_AzuM8xFsE89Z2pPuWLtxrjliPT_MzjabQEWMUsTj-zPgh_sYMbdBauUgy-nc8w9YFzJ4gugkbNCnFN7n26hsqyrWsoi_3F-GVYmOOwjdMfjSAdG4Arudv_vqnYCZ7SyxZxtrXXNmhrhSl3RnEuhQXBkxi6sQrTf4PeES-oZipIOm7wGyHEqoRKABGT9o47dgHtWAmnvl0l4WPTQNpAxqS-OzoRpV-Ya3VJoN_SWo-Wy0?></g></svg>