<svg xmlns="http://www.w3.org/2000/svg" xmlns:xlink="http://www.w3.org/1999/xlink" contentStyleType="text/css" data-diagram-type="ACTIVITY" height="1751px" preserveAspectRatio="none" style="width:645px;height:1751px;background:#FFFFFF;" version="1.1" viewBox="0 0 645 1751" width="645px" zoomAndPan="magnify"><?plantuml 1.2026.3?><defs/><g><g class="title" data-source-line="1"><text fill="#000000" font-family="sans-serif" font-size="14" font-weight="700" lengthAdjust="spacing" textLength="285.2227" x="179.0754" y="34.5332">UC-001 Seek Travel Advice &#8212; UX task flow</text></g><rect fill="none" height="22.6406" style="stroke:none;stroke-width:1;" width="598.3735" x="20" y="56.0645"/><ellipse cx="117.3604" cy="93.7051" fill="#222222" rx="10" ry="10" style="stroke:#222222;stroke-width:1;"/><rect fill="#F7F7F7" height="50.1875" rx="12.5" ry="12.5" style="stroke:#333333;stroke-width:0.5;" width="182.7207" x="26" y="123.7051"/><text fill="#000000" font-family="sans-serif" font-size="12" lengthAdjust="spacing" textLength="162.7207" x="36" y="146.1621">MSS 1 &#8212; Ask for travel advice</text><text fill="#000000" font-family="sans-serif" font-size="12" lengthAdjust="spacing" textLength="118.0664" x="36" y="161.2559">and identify its subject</text><rect fill="#F7F7F7" height="50.1875" rx="12.5" ry="12.5" style="stroke:#333333;stroke-width:0.5;" width="170.7031" x="32.0088" y="1074.916"/><text fill="#000000" font-family="sans-serif" font-size="12" lengthAdjust="spacing" textLength="150.7031" x="42.0088" y="1097.373">MSS 5 &#8212; Review or confirm</text><text fill="#000000" font-family="sans-serif" font-size="12" lengthAdjust="spacing" textLength="94.7227" x="42.0088" y="1112.4668">the resulting state</text><polygon fill="#FFF4CC" points="73.0354,1145.1035,161.6853,1145.1035,173.6853,1157.1035,161.6853,1169.1035,73.0354,1169.1035,61.0354,1157.1035,73.0354,1145.1035" style="stroke:#8A6D1D;stroke-width:0.5;"/><text fill="#000000" font-family="sans-serif" font-size="11" lengthAdjust="spacing" textLength="88.6499" x="73.0354" y="1161.6045">Result confirmed?</text><text fill="#000000" font-family="sans-serif" font-size="11" lengthAdjust="spacing" textLength="17.1177" x="43.9177" y="1154.6865">yes</text><text fill="#000000" font-family="sans-serif" font-size="11" lengthAdjust="spacing" textLength="59.9146" x="173.6853" y="1154.6865">no &#8212; EXT 5</text><rect fill="#F7F7F7" height="35.0938" rx="12.5" ry="12.5" style="stroke:#333333;stroke-width:0.5;" width="162.0723" x="109.5137" y="1314.3848"/><text fill="#000000" font-family="sans-serif" font-size="12" lengthAdjust="spacing" textLength="142.0723" x="119.5137" y="1336.8418">Refine goals or constraints</text><line style="stroke:#000000;stroke-width:1.5;" x1="20" x2="20" y1="56.0645" y2="1659.8535"/><rect fill="#F7F7F7" height="50.1875" rx="12.5" ry="12.5" style="stroke:#333333;stroke-width:0.5;" width="217.4082" x="290.6006" y="193.8926"/><text fill="#000000" font-family="sans-serif" font-size="12" lengthAdjust="spacing" textLength="197.4082" x="300.6006" y="216.3496">MSS 2 &#8212; Retrieve confirmed context</text><text fill="#000000" font-family="sans-serif" font-size="12" lengthAdjust="spacing" textLength="126.75" x="300.6006" y="231.4434">and check authorization</text><rect fill="#F7F7F7" height="50.1875" rx="12.5" ry="12.5" style="stroke:#333333;stroke-width:0.5;" width="178.0859" x="310.2617" y="264.0801"/><text fill="#000000" font-family="sans-serif" font-size="12" lengthAdjust="spacing" textLength="158.0859" x="320.2617" y="286.5371">MSS 3 &#8212; Obtain and validate</text><text fill="#000000" font-family="sans-serif" font-size="12" lengthAdjust="spacing" textLength="102.7383" x="320.2617" y="301.6309">needed information</text><rect fill="#F7F7F7" height="35.0938" rx="12.5" ry="12.5" style="stroke:#333333;stroke-width:0.5;" width="142.748" x="327.9307" y="386.8574"/><text fill="#000000" font-family="sans-serif" font-size="12" lengthAdjust="spacing" textLength="122.748" x="337.9307" y="409.3145">Identify what is needed</text><rect fill="#F7F7F7" height="35.0938" rx="12.5" ry="12.5" style="stroke:#333333;stroke-width:0.5;" width="195.4121" x="301.5986" y="441.9512"/><text fill="#000000" font-family="sans-serif" font-size="12" lengthAdjust="spacing" textLength="175.4121" x="311.5986" y="464.4082">Preserve the last confirmed state</text><rect fill="#F7F7F7" height="50.1875" rx="12.5" ry="12.5" style="stroke:#333333;stroke-width:0.5;" width="188.082" x="305.2637" y="511.627"/><text fill="#000000" font-family="sans-serif" font-size="12" lengthAdjust="spacing" textLength="168.082" x="315.2637" y="534.084">Communicate the missing need</text><text fill="#000000" font-family="sans-serif" font-size="12" lengthAdjust="spacing" textLength="94.043" x="315.2637" y="549.1777">without inferring it</text><ellipse cx="399.3047" cy="592.8145" fill="none" rx="11" ry="11" style="stroke:#222222;stroke-width:1;"/><ellipse cx="399.3047" cy="592.8145" fill="#222222" rx="6" ry="6" style="stroke:#222222;stroke-width:1;"/><polygon fill="#FFF4CC" points="343.9663,334.2676,454.6431,334.2676,466.6431,348.1035,454.6431,361.9395,343.9663,361.9395,331.9663,348.1035,343.9663,334.2676" style="stroke:#8A6D1D;stroke-width:0.5;"/><text fill="#000000" font-family="sans-serif" font-size="11" lengthAdjust="spacing" textLength="69.6953" x="403.3047" y="373.3584">no &#8212; EXT 2-3</text><text fill="#000000" font-family="sans-serif" font-size="11" lengthAdjust="spacing" textLength="110.6768" x="343.9663" y="345.6865">Context, authority, and</text><text fill="#000000" font-family="sans-serif" font-size="11" lengthAdjust="spacing" textLength="106.9976" x="343.9663" y="359.5225">information sufficient?</text><text fill="#000000" font-family="sans-serif" font-size="11" lengthAdjust="spacing" textLength="17.1177" x="466.6431" y="345.6865">yes</text><rect fill="#F7F7F7" height="50.1875" rx="12.5" ry="12.5" style="stroke:#333333;stroke-width:0.5;" width="232.7422" x="282.9336" y="689.8145"/><text fill="#000000" font-family="sans-serif" font-size="12" lengthAdjust="spacing" textLength="212.7422" x="292.9336" y="712.2715">MSS 4 &#8212; Perform Sales responsibilities</text><text fill="#000000" font-family="sans-serif" font-size="12" lengthAdjust="spacing" textLength="194.1094" x="292.9336" y="727.3652">and coordinate Customer Interaction</text><rect fill="#F7F7F7" height="35.0938" rx="12.5" ry="12.5" style="stroke:#333333;stroke-width:0.5;" width="214.0977" x="292.2559" y="808.9199"/><text fill="#000000" font-family="sans-serif" font-size="12" lengthAdjust="spacing" textLength="194.0977" x="302.2559" y="831.377">Record the partial or uncertain result</text><rect fill="#F7F7F7" height="35.0938" rx="12.5" ry="12.5" style="stroke:#333333;stroke-width:0.5;" width="156.0723" x="321.2686" y="864.0137"/><text fill="#000000" font-family="sans-serif" font-size="12" lengthAdjust="spacing" textLength="136.0723" x="331.2686" y="886.4707">Avoid presenting success</text><rect fill="#F7F7F7" height="50.1875" rx="12.5" ry="12.5" style="stroke:#333333;stroke-width:0.5;" width="144.0723" x="327.2686" y="929.8574"/><text fill="#000000" font-family="sans-serif" font-size="12" lengthAdjust="spacing" textLength="119.3613" x="337.2686" y="952.3145">Offer retry, revision, or</text><text fill="#000000" font-family="sans-serif" font-size="12" lengthAdjust="spacing" textLength="124.0723" x="337.2686" y="967.4082">human-assistance path</text><ellipse cx="399.3047" cy="1011.0449" fill="none" rx="11" ry="11" style="stroke:#222222;stroke-width:1;"/><ellipse cx="399.3047" cy="1011.0449" fill="#222222" rx="6" ry="6" style="stroke:#222222;stroke-width:1;"/><polygon fill="#FFF4CC" points="331.1294,760.002,467.48,760.002,479.48,772.002,467.48,784.002,331.1294,784.002,319.1294,772.002,331.1294,760.002" style="stroke:#8A6D1D;stroke-width:0.5;"/><text fill="#000000" font-family="sans-serif" font-size="11" lengthAdjust="spacing" textLength="59.9146" x="403.3047" y="795.4209">no &#8212; EXT 4</text><text fill="#000000" font-family="sans-serif" font-size="11" lengthAdjust="spacing" textLength="136.3506" x="331.1294" y="776.5029">Responsibilities completed?</text><text fill="#000000" font-family="sans-serif" font-size="11" lengthAdjust="spacing" textLength="17.1177" x="479.48" y="769.585">yes</text><rect fill="#F7F7F7" height="35.0938" rx="12.5" ry="12.5" style="stroke:#333333;stroke-width:0.5;" width="192.0898" x="376.4492" y="1189.1035"/><text fill="#000000" font-family="sans-serif" font-size="12" lengthAdjust="spacing" textLength="172.0898" x="386.4492" y="1211.5605">Preserve the confirmed baseline</text><rect fill="#F7F7F7" height="50.1875" rx="12.5" ry="12.5" style="stroke:#333333;stroke-width:0.5;" width="164.7441" x="390.1221" y="1244.1973"/><text fill="#000000" font-family="sans-serif" font-size="12" lengthAdjust="spacing" textLength="144.7441" x="400.1221" y="1266.6543">Return affected information</text><text fill="#000000" font-family="sans-serif" font-size="12" lengthAdjust="spacing" textLength="58.6875" x="400.1221" y="1281.748">for revision</text><rect fill="#F7F7F7" height="35.0938" rx="12.5" ry="12.5" style="stroke:#333333;stroke-width:0.5;" width="222.7578" x="361.1152" y="1369.4785"/><text fill="#000000" font-family="sans-serif" font-size="12" lengthAdjust="spacing" textLength="202.7578" x="371.1152" y="1391.9355">MSS 3 &#8212; Validate revised information</text><polygon fill="#FFF4CC" points="399.3047,645.8145,411.3047,657.8145,399.3047,669.8145,387.3047,657.8145,399.3047,645.8145" style="stroke:#8A6D1D;stroke-width:0.5;"/><polygon fill="#FFF4CC" points="351.0051,1424.5723,447.6042,1424.5723,459.6042,1436.5723,447.6042,1448.5723,351.0051,1448.5723,339.0051,1436.5723,351.0051,1424.5723" style="stroke:#8A6D1D;stroke-width:0.5;"/><text fill="#000000" font-family="sans-serif" font-size="11" lengthAdjust="spacing" textLength="96.5991" x="351.0051" y="1441.0732">Further refinement?</text><text fill="#000000" font-family="sans-serif" font-size="11" lengthAdjust="spacing" textLength="17.1177" x="459.6042" y="1434.1553">yes</text><polygon fill="#FFF4CC" points="399.3047,1468.5723,411.3047,1480.5723,399.3047,1492.5723,387.3047,1480.5723,399.3047,1468.5723" style="stroke:#8A6D1D;stroke-width:0.5;"/><rect fill="#F7F7F7" height="50.1875" rx="12.5" ry="12.5" style="stroke:#333333;stroke-width:0.5;" width="235.4375" x="281.5859" y="1512.5723"/><text fill="#000000" font-family="sans-serif" font-size="12" lengthAdjust="spacing" textLength="215.4375" x="291.5859" y="1535.0293">MSS 6 &#8212; Record outcome, provenance,</text><text fill="#000000" font-family="sans-serif" font-size="12" lengthAdjust="spacing" textLength="140.0918" x="291.5859" y="1550.123">and unresolved next steps</text><rect fill="#F7F7F7" height="35.0938" rx="12.5" ry="12.5" style="stroke:#333333;stroke-width:0.5;" width="219.4238" x="289.5928" y="1582.7598"/><text fill="#000000" font-family="sans-serif" font-size="12" lengthAdjust="spacing" textLength="199.4238" x="299.5928" y="1605.2168">Communicate them to affected actors</text><ellipse cx="399.3047" cy="1648.8535" fill="none" rx="11" ry="11" style="stroke:#222222;stroke-width:1;"/><ellipse cx="399.3047" cy="1648.8535" fill="#222222" rx="6" ry="6" style="stroke:#222222;stroke-width:1;"/><line style="stroke:#000000;stroke-width:1.5;" x1="275.5859" x2="275.5859" y1="56.0645" y2="1659.8535"/><line style="stroke:#000000;stroke-width:1.5;" x1="616.873" x2="616.873" y1="56.0645" y2="1659.8535"/><line style="stroke:#181818;stroke-width:1;" x1="117.3604" x2="117.3604" y1="103.7051" y2="123.7051"/><polygon fill="#181818" points="113.3604,113.7051,117.3604,123.7051,121.3604,113.7051,117.3604,117.7051" style="stroke:#181818;stroke-width:1;"/><line style="stroke:#181818;stroke-width:1;" x1="61.0354" x2="44.1709" y1="1157.1035" y2="1157.1035"/><line style="stroke:#181818;stroke-width:1;" x1="44.1709" x2="44.1709" y1="1157.1035" y2="1189.1035"/><polygon fill="#181818" points="40.1709,1179.1035,44.1709,1189.1035,48.1709,1179.1035,44.1709,1183.1035" style="stroke:#181818;stroke-width:1;"/><line style="stroke:#181818;stroke-width:1;" x1="117.3604" x2="117.3604" y1="1125.1035" y2="1145.1035"/><polygon fill="#181818" points="113.3604,1135.1035,117.3604,1145.1035,121.3604,1135.1035,117.3604,1139.1035" style="stroke:#181818;stroke-width:1;"/><line style="stroke:#181818;stroke-width:1;" x1="399.3047" x2="399.3047" y1="244.0801" y2="264.0801"/><polygon fill="#181818" points="395.3047,254.0801,399.3047,264.0801,403.3047,254.0801,399.3047,258.0801" style="stroke:#181818;stroke-width:1;"/><line style="stroke:#181818;stroke-width:1;" x1="399.3047" x2="399.3047" y1="421.9512" y2="441.9512"/><polygon fill="#181818" points="395.3047,431.9512,399.3047,441.9512,403.3047,431.9512,399.3047,435.9512" style="stroke:#181818;stroke-width:1;"/><line style="stroke:#181818;stroke-width:1;" x1="399.3047" x2="399.3047" y1="477.0449" y2="511.627"/><polygon fill="#181818" points="395.3047,501.627,399.3047,511.627,403.3047,501.627,399.3047,505.627" style="stroke:#181818;stroke-width:1;"/><line style="stroke:#181818;stroke-width:1;" x1="399.3047" x2="399.3047" y1="561.8145" y2="581.8145"/><polygon fill="#181818" points="395.3047,571.8145,399.3047,581.8145,403.3047,571.8145,399.3047,575.8145" style="stroke:#181818;stroke-width:1;"/><line style="stroke:#181818;stroke-width:1;" x1="399.3047" x2="399.3047" y1="361.9395" y2="386.8574"/><polygon fill="#181818" points="395.3047,376.8574,399.3047,386.8574,403.3047,376.8574,399.3047,380.8574" style="stroke:#181818;stroke-width:1;"/><line style="stroke:#181818;stroke-width:1;" x1="466.6431" x2="507.0107" y1="348.1035" y2="348.1035"/><polygon fill="#181818" points="503.0107,481.627,507.0107,491.627,511.0107,481.627,507.0107,485.627" style="stroke:#181818;stroke-width:1;"/><line style="stroke:#181818;stroke-width:1;" x1="507.0107" x2="507.0107" y1="348.1035" y2="625.8145"/><line style="stroke:#181818;stroke-width:1;" x1="507.0107" x2="399.3047" y1="625.8145" y2="625.8145"/><line style="stroke:#181818;stroke-width:1;" x1="399.3047" x2="399.3047" y1="625.8145" y2="645.8145"/><polygon fill="#181818" points="395.3047,635.8145,399.3047,645.8145,403.3047,635.8145,399.3047,639.8145" style="stroke:#181818;stroke-width:1;"/><line style="stroke:#181818;stroke-width:1;" x1="399.3047" x2="399.3047" y1="314.2676" y2="334.2676"/><polygon fill="#181818" points="395.3047,324.2676,399.3047,334.2676,403.3047,324.2676,399.3047,328.2676" style="stroke:#181818;stroke-width:1;"/><line style="stroke:#181818;stroke-width:1;" x1="399.3047" x2="399.3047" y1="844.0137" y2="864.0137"/><polygon fill="#181818" points="395.3047,854.0137,399.3047,864.0137,403.3047,854.0137,399.3047,858.0137" style="stroke:#181818;stroke-width:1;"/><line style="stroke:#181818;stroke-width:1;" x1="399.3047" x2="399.3047" y1="899.1074" y2="929.8574"/><polygon fill="#181818" points="395.3047,919.8574,399.3047,929.8574,403.3047,919.8574,399.3047,923.8574" style="stroke:#181818;stroke-width:1;"/><line style="stroke:#181818;stroke-width:1;" x1="399.3047" x2="399.3047" y1="980.0449" y2="1000.0449"/><polygon fill="#181818" points="395.3047,990.0449,399.3047,1000.0449,403.3047,990.0449,399.3047,994.0449" style="stroke:#181818;stroke-width:1;"/><line style="stroke:#181818;stroke-width:1;" x1="399.3047" x2="399.3047" y1="784.002" y2="808.9199"/><polygon fill="#181818" points="395.3047,798.9199,399.3047,808.9199,403.3047,798.9199,399.3047,802.9199" style="stroke:#181818;stroke-width:1;"/><line style="stroke:#181818;stroke-width:1;" x1="479.48" x2="516.3535" y1="772.002" y2="772.002"/><polygon fill="#181818" points="512.3535,909.1074,516.3535,919.1074,520.3535,909.1074,516.3535,913.1074" style="stroke:#181818;stroke-width:1;"/><line style="stroke:#181818;stroke-width:1;" x1="516.3535" x2="516.3535" y1="772.002" y2="1057.416"/><line style="stroke:#181818;stroke-width:1;" x1="516.3535" x2="117.3604" y1="1057.416" y2="1057.416"/><line style="stroke:#181818;stroke-width:1;" x1="117.3604" x2="117.3604" y1="1057.416" y2="1074.916"/><polygon fill="#181818" points="113.3604,1064.916,117.3604,1074.916,121.3604,1064.916,117.3604,1068.916" style="stroke:#181818;stroke-width:1;"/><line style="stroke:#181818;stroke-width:1;" x1="399.3047" x2="399.3047" y1="740.002" y2="760.002"/><polygon fill="#181818" points="395.3047,750.002,399.3047,760.002,403.3047,750.002,399.3047,754.002" style="stroke:#181818;stroke-width:1;"/><line style="stroke:#181818;stroke-width:1;" x1="472.4941" x2="472.4941" y1="1224.1973" y2="1244.1973"/><polygon fill="#181818" points="468.4941,1234.1973,472.4941,1244.1973,476.4941,1234.1973,472.4941,1238.1973" style="stroke:#181818;stroke-width:1;"/><line style="stroke:#181818;stroke-width:1;" x1="399.3047" x2="399.3047" y1="669.8145" y2="689.8145"/><polygon fill="#181818" points="395.3047,679.8145,399.3047,689.8145,403.3047,679.8145,399.3047,683.8145" style="stroke:#181818;stroke-width:1;"/><line style="stroke:#181818;stroke-width:1;" x1="459.6042" x2="597.873" y1="1436.5723" y2="1436.5723"/><polygon fill="#181818" points="593.873,1064.0449,597.873,1054.0449,601.873,1064.0449,597.873,1060.0449" style="stroke:#181818;stroke-width:1;"/><line style="stroke:#181818;stroke-width:1;" x1="597.873" x2="597.873" y1="657.8145" y2="1436.5723"/><line style="stroke:#181818;stroke-width:1;" x1="597.873" x2="411.3047" y1="657.8145" y2="657.8145"/><polygon fill="#181818" points="421.3047,653.8145,411.3047,657.8145,421.3047,661.8145,417.3047,657.8145" style="stroke:#181818;stroke-width:1;"/><line style="stroke:#181818;stroke-width:1;" x1="399.3047" x2="399.3047" y1="1448.5723" y2="1468.5723"/><polygon fill="#181818" points="395.3047,1458.5723,399.3047,1468.5723,403.3047,1458.5723,399.3047,1462.5723" style="stroke:#181818;stroke-width:1;"/><line style="stroke:#181818;stroke-width:1;" x1="399.3047" x2="399.3047" y1="1492.5723" y2="1512.5723"/><polygon fill="#181818" points="395.3047,1502.5723,399.3047,1512.5723,403.3047,1502.5723,399.3047,1506.5723" style="stroke:#181818;stroke-width:1;"/><line style="stroke:#181818;stroke-width:1;" x1="399.3047" x2="399.3047" y1="1562.7598" y2="1582.7598"/><polygon fill="#181818" points="395.3047,1572.7598,399.3047,1582.7598,403.3047,1572.7598,399.3047,1576.7598" style="stroke:#181818;stroke-width:1;"/><line style="stroke:#181818;stroke-width:1;" x1="399.3047" x2="399.3047" y1="1617.8535" y2="1637.8535"/><polygon fill="#181818" points="395.3047,1627.8535,399.3047,1637.8535,403.3047,1627.8535,399.3047,1631.8535" style="stroke:#181818;stroke-width:1;"/><line style="stroke:#181818;stroke-width:1;" x1="117.3604" x2="117.3604" y1="173.8926" y2="178.8926"/><line style="stroke:#181818;stroke-width:1;" x1="117.3604" x2="399.3047" y1="178.8926" y2="178.8926"/><line style="stroke:#181818;stroke-width:1;" x1="399.3047" x2="399.3047" y1="178.8926" y2="193.8926"/><polygon fill="#181818" points="395.3047,183.8926,399.3047,193.8926,403.3047,183.8926,399.3047,187.8926" style="stroke:#181818;stroke-width:1;"/><line style="stroke:#181818;stroke-width:1;" x1="472.4941" x2="472.4941" y1="1294.3848" y2="1299.3848"/><line style="stroke:#181818;stroke-width:1;" x1="472.4941" x2="190.5498" y1="1299.3848" y2="1299.3848"/><line style="stroke:#181818;stroke-width:1;" x1="190.5498" x2="190.5498" y1="1299.3848" y2="1314.3848"/><polygon fill="#181818" points="186.5498,1304.3848,190.5498,1314.3848,194.5498,1304.3848,190.5498,1308.3848" style="stroke:#181818;stroke-width:1;"/><line style="stroke:#181818;stroke-width:1;" x1="190.5498" x2="190.5498" y1="1349.4785" y2="1354.4785"/><line style="stroke:#181818;stroke-width:1;" x1="190.5498" x2="472.4941" y1="1354.4785" y2="1354.4785"/><line style="stroke:#181818;stroke-width:1;" x1="472.4941" x2="472.4941" y1="1354.4785" y2="1369.4785"/><polygon fill="#181818" points="468.4941,1359.4785,472.4941,1369.4785,476.4941,1359.4785,472.4941,1363.4785" style="stroke:#181818;stroke-width:1;"/><line style="stroke:#181818;stroke-width:1;" x1="173.6853" x2="472.4941" y1="1157.1035" y2="1157.1035"/><line style="stroke:#181818;stroke-width:1;" x1="472.4941" x2="472.4941" y1="1157.1035" y2="1189.1035"/><polygon fill="#181818" points="468.4941,1179.1035,472.4941,1189.1035,476.4941,1179.1035,472.4941,1183.1035" style="stroke:#181818;stroke-width:1;"/><line style="stroke:#181818;stroke-width:1;" x1="472.4941" x2="472.4941" y1="1404.5723" y2="1409.5723"/><line style="stroke:#181818;stroke-width:1;" x1="472.4941" x2="399.3047" y1="1409.5723" y2="1409.5723"/><line style="stroke:#181818;stroke-width:1;" x1="399.3047" x2="399.3047" y1="1409.5723" y2="1424.5723"/><polygon fill="#181818" points="395.3047,1414.5723,399.3047,1424.5723,403.3047,1414.5723,399.3047,1418.5723" style="stroke:#181818;stroke-width:1;"/><text fill="#000000" font-family="sans-serif" font-size="18" lengthAdjust="spacing" textLength="155.0479" x="70.269" y="74.75">ACT-001 Customer</text><text fill="#000000" font-family="sans-serif" font-size="18" lengthAdjust="spacing" textLength="60.0117" x="416.2236" y="74.75">System</text><g class="legend" data-source-line="56"><rect fill="#DDDDDD" height="45.2188" rx="7.5" ry="7.5" style="stroke:#000000;stroke-width:1;" width="312.6885" x="165.3425" y="1681.8535"/><text fill="#000000" font-family="sans-serif" font-size="14" lengthAdjust="spacing" textLength="196.0889" x="170.3425" y="1701.3867">Textual UC-001 is authoritative.</text><text fill="#000000" font-family="sans-serif" font-size="14" lengthAdjust="spacing" textLength="302.6885" x="170.3425" y="1718.9961">MSS = main success scenario; EXT = extension.</text></g><?plantuml-src RLH1RXiv4BpFAnh8nGRam8wTP14XM6ZbDP338e5bBtpGXPhfiNerGmfapsYLE40UaHVc9IcIerXMB5qaabsiggwcYZPCjzEJqzCpcZ6lwCQRdXkQLBsKJ3--VQVREr8JLbGtRbCKOILsRRnfAInDvJPYxwasJU2z7LEgzA9R-b8G_MNArRrtdQschd6UNbozZT-uutp5VbWzJn-iNeffdQr-BxkwkfXEzmxiL_ynUNDvTbbyBOg7oVGcgPbsGLtB_g48QhmMx_wPpUWiAPf4DIZJhDKahNDhR4LIiLMfjoGQA7IB_xZKCL1dsw3SFcIKLmdbcjKBzqobixNubgluI_b_pL3baiiLcKwNpijde-BiEDUVf_gF2pLYAHxjJIELKN2mp1M0n89VEzH8JKVJZ3pQuUbs52ldTkya-DQrb085VnwJBjdIqPR3SS5e3nrPbwxz--w6NfsS7yF9TnzsQZTBeoI1ylNZkFV9Ss0FUG2YnWJTqmb7bTEfgMlRpag9_-bWAo74I4IWkTq8o7OQvR3tSLqqbg4pwu9j9NLHU5wpqOWLhRb873-nZwfePXeE129hPuCif14L3eEz3W4G6o_UjPe-m2GVqnTj8uh6NHyKewvTDwnSFVM8w3UNBk8gU5rpYQkIFEHRnJI4y7IsP9yw27vTatJXyAHtKj4wcWTheJXqPSaX3DiVQpY12lLeeETU0hYEW3UtowurziJ0FzWBS5ocoroM_0B3x1ZHCo4V_7izHBCNtaIMGy_cDhBFH1EfNGC7Yx3ysDv3OuWMditgEOjUv_rVuv4qFadEOsWM9d0ZbiSxLxNpY3yCAVLfvEVnvoztylbd9IUO6fXqx_063O83vbgi3fO_vVOuVlyECvVlEPovdTavdPWFmJjvTDLvQ8hKugLj7ZICJNRgu9LuCxGYXGTJWE3n2CbmFTlOtr7ESMTXbsjwCB2OSBI6rw1-E5ajgNiq2nbt7gTIC8g6xy6M5axXJ743b0uP7LvrqDkz6T3MyyiYadjFROpk44uA9JXvSUFKrVS42BRH_9TnJ3F-Jm00?></g></svg>